<?xml version="1.0" encoding="utf-8"?>
<!-- Generator: Adobe Illustrator 23.0.3, SVG Export Plug-In . SVG Version: 6.00 Build 0)  -->
<svg version="1.1"
	 id="logosvg.com" inkscape:version="0.92.4 5da689c313, 2019-01-14" sodipodi:docname="DTM_logo.svg" xmlns:cc="http://creativecommons.org/ns#" xmlns:dc="http://purl.org/dc/elements/1.1/" xmlns:inkscape="http://www.inkscape.org/namespaces/inkscape" xmlns:rdf="http://www.w3.org/1999/02/22-rdf-syntax-ns#" xmlns:sodipodi="http://sodipodi.sourceforge.net/DTD/sodipodi-0.dtd" xmlns:svg="http://www.w3.org/2000/svg"
	 xmlns="http://www.w3.org/2000/svg" xmlns:xlink="http://www.w3.org/1999/xlink" width="100" height="75" x="0px" y="0px" viewBox="0 0 400 300"
	 style="enable-background:new 0 0 400 300;" xml:space="preserve">
<style type="text/css">
	.st0{fill:#00325F;fill-opacity:0.9412;}
	.st1{fill:#E0FF80;}
</style>
<rect id="blue" x="16.1" y="93.1" class="st0" width="367.8" height="114.4"/>
<path id="yellow" inkscape:connector-curvature="0" class="st1" d="M158.9,196.8c0-0.7,16.8-67.5,17.9-71.3c0.3-1.1-0.6-1.2-13-1.2
	c-9,0-13.3-0.2-13.3-0.8c0-0.6,3.7-14.3,5.3-19.7c0.3-1.1,3-1.2,42.6-1.2c37.7,0,42.2,0.1,42.2,1.1c0,1-1.3,6.1-4.6,17.6l-1,3.7
	h-12.4h-12.4l-8.6,33.7c-4.7,18.5-8.9,34.9-9.3,36.3l-0.7,2.6h-16.4C163.3,197.6,158.9,197.4,158.9,196.8L158.9,196.8z M217.8,195.7
	c0.5-1.1,10.3-22.3,21.8-47.2l20.9-45.3h18.7H298l0.3,1.6c0.2,0.9,1.5,11.6,2.8,23.9c3.3,29.5,3.1,28.6,4.2,27.5
	c0.5-0.5,8.3-12.8,17.5-27.3l16.6-26.4h17.4h17.4l0,2.6c0,1.4-0.5,21-1,43.5c-0.6,22.5-1,42.5-1,44.6l0,3.7h-17.5h-17.5l0-1.6
	c0-0.9,0.8-12.6,1.7-26c0.9-13.5,1.5-24.6,1.4-24.7s-7.4,11.8-16.2,26.4l-16,26.6l-14.7-0.2l-14.7-0.2l-2.9-25.7
	c-1.6-14.1-3-25.9-3.2-26c-0.2-0.2-5.2,11.4-11.2,25.7l-10.9,26l-16.9,0.2l-16.9,0.2L217.8,195.7z M25,195.7
	c0.2-0.7,5.1-20.1,10.9-43.2s11-43.6,11.6-45.6l1-3.7l31.6,0.3c27.6,0.2,32.1,0.4,35.8,1.5c11.2,3.3,19.5,9.6,23.1,17.3
	c1.9,4.1,2,5,2,12.8c-0.1,18.3-7.8,35.6-20.6,46.2c-14.7,12.1-32.4,15.7-78.1,15.7C25.8,196.9,24.7,196.8,25,195.7z M82,173.4
	c7.7-2,15.5-8.1,18.9-14.8c2.6-5.1,4.5-13.4,4.6-19.7c0.1-7.6-1.4-10.8-5.9-13.1c-2.8-1.4-4.1-1.6-13.4-1.6H75.8l-0.7,2.6
	c-3.2,12.4-12,46.9-12,47.2C63.2,175.4,75.8,175,82,173.4L82,173.4z"/>
</svg>
